# AST/ASF file generated using VICON BodyLanguage
# -----------------------------------------------
:version 1.10
:name VICON
:units
  mass 1.0
  length 0.45
  angle deg
:documentation
   .ast/.asf automatically generated from VICON data using
   VICON BodyBuilder and BodyLanguage model FoxedUp or BRILLIANT.MOD
:root
   order TX TY TZ RX RY RZ
   axis XYZ
   position 0 0 0  
   orientation 0 0 0 
:bonedata
  begin
     id 1 
     name lhipjoint
     direction 0.662698 -0.695252 0.27831 
     length 2.53073 
     axis 0 0 0  XYZ
  end
  begin
     id 2 
     name lfemur
     direction 0.34202 -0.939693 0  
     length 7.16147  
     axis 0 0 20  XYZ
    dof rx ry rz
    limits (-160.0 20.0)
           (-70.0 70.0)
           (-60.0 70.0)
  end
  begin
     id 3 
     name ltibia
     direction 0.34202 -0.939693 0   
     length 7.63967   
     axis 0 0 20   XYZ
    dof rx
    limits (-10.0 170.0)
  end
  begin
     id 4 
     name lfoot
     direction 0.0938457 -0.257721 0.961651   
     length 1.89793   
     axis -90 7.62852e-016 20   XYZ
    dof rx rz
    limits (-45.0 90.0)
           (-70.0 20.0)
  end
  begin
     id 5 
     name ltoes
     direction -0.00116841 -0.0030592 0.999995   
     length 0.955649   
     axis -90 7.62852e-016 20   XYZ
    dof rx
    limits (-90.0 20.0)
  end
  begin
     id 6 
     name rhipjoint
     direction -0.649445 -0.705948 0.282592   
     length 2.49238  
     axis 0 0 0  XYZ 
  end
  begin
     id 7 
     name rfemur
     direction -0.34202 -0.939693 0   
     length 6.90728   
     axis 0 0 -20   XYZ
    dof rx ry rz
    limits (-160.0 20.0)
           (-70.0 70.0)
           (-70.0 60.0)
  end
  begin
     id 8 
     name rtibia
     direction -0.34202 -0.939693 0   
     length 7.72868   
     axis 0 0 -20   XYZ
    dof rx
    limits (-10.0 170.0)
 end
 begin
     id 9 
     name rfoot
     direction -0.0920068 -0.252865 0.963117   
     length 1.97476  
     axis -90 -7.62852e-016 -20   XYZ
    dof rx rz
    limits (-45.0 90.0)
           (-20.0 70.0)
  end
  begin
     id 10 
     name rtoes
     direction 0.000391322 0.00230649 0.999997   
     length 0.992641   
     axis -90 -7.62852e-016 -20   XYZ
    dof rx
    limits (-90.0 20.0)
  end
  begin
     id 11 
     name lowerback
     direction -0.00875327 0.998321 -0.0572635   
     length 2.20024   
     axis 0 0 0   XYZ
    dof rx ry rz
    limits (-20.0 45.0)
           (-30.0 30.0)
           (-30.0 30.0)
  end
  begin
     id 12 
     name upperback
     direction 0.00753931 0.999972 -0.000360425   
     length 2.20538   
     axis 0 0 0   XYZ
    dof rx ry rz
    limits (-20.0 45.0)
           (-30.0 30.0)
           (-30.0 30.0)
  end
  begin
     id 13 
     name thorax
     direction 0.0117767 0.999601 0.0256663   
     length 2.21508   
     axis 0 0 0   XYZ
    dof rx ry rz
    limits (-20.0 45.0)
           (-30.0 30.0)
           (-30.0 30.0)
  end
  begin
     id 14 
     name lowerneck
     direction 0.060228 0.994909 0.0807986   
     length 1.7607   
     axis 0 0 0   XYZ
    dof rx ry rz
    limits (-20.0 45.0)
           (-30.0 30.0)
           (-30.0 30.0)
  end
  begin
     id 15 
     name upperneck
     direction -0.0563647 0.959594 -0.275685   
     length 1.75612   
     axis 0 0 0   XYZ
    dof rx ry rz
    limits (-20.0 45.0)
           (-30.0 30.0)
           (-30.0 30.0)
  end
  begin
     id 16
     name head
     direction -0.0161544 0.99458 -0.102714  
     length 1.79288  
     axis 0 0 0   XYZ
    dof rx ry rz
    limits (-20.0 45.0)
           (-30.0 30.0)
           (-30.0 30.0)
  end
  begin
     id 17 
     name lclavicle
     direction 0.93913 0.332189 -0.087669  
     length 3.52087  
     axis 0 0 0   XYZ
    dof ry rz
    limits (-20.0 10.0)
           (0.0 20.0)
  end
  begin
     id 18 
     name lhumerus
     direction 1 -4.48974e-011 -2.70836e-027   
     length 5.35289   
     axis -180 -30 -90   XYZ
    dof rx ry rz
    limits (-60.0 90.0)
           (-90.0 90.0)
           (-90.0 90.0)
  end
  begin
     id 19
     name lradius
     direction 1 -4.48961e-011 -9.76021e-027   
     length 3.27727   
     axis -180 -30 -90   XYZ
    dof rx
    limits (-10.0 170.0)
  end
  begin
     id 20
     name lwrist
     direction 1 -4.49103e-011 -2.23668e-026   
     length 1.63864   
     axis 1.44924e-014 90 90   XYZ
    dof ry
    limits (-180.0 0.0)
 end
  begin
     id 21 
     name lhand
     direction 1 3.0697e-005 0.000161777   
     length 0.54443   
     axis 2.85318e-014 90 90   XYZ
    dof rx rz
    limits (-90.0 90.0)
           (-45.0 45.0)
  end
  begin
     id 22 
     name lfingers
     direction 1 -4.49027e-011 -8.9447e-026   
     length 0.438912   
     axis 5.70628e-014 90 90   XYZ
    dof rx
    limits (0.0 90.0)
  end
  begin
     id 23
     name lthumb
     direction 0.707058 2.6516e-005 0.707156   
     length 0.630274   
     axis -90 45 -3.53137e-014   XYZ
    dof rx rz
    limits (-45.0 45.0)
           (-45.0 45.0)
  end
  begin
     id 24 
     name rclavicle
     direction -0.95274 0.284984 -0.105215   
     length 3.43401  
     axis 0 0 0   XYZ 
    dof ry rz
    limits (-10.0 20.0)
           (-20.0 0.0)
  end
  begin
     id 25 
     name rhumerus
     direction -0.999999 -0.000575019 -0.00106829  
     length 5.52077   
     axis -180 30 90   XYZ
    dof rx ry rz
    limits (-90.0 60.0)
           (-90.0 90.0)
           (-90.0 90.0)
  end
  begin
     id 26 
     name rradius
     direction -1 -4.4879e-011 -6.35415e-027   
     length 3.32364   
     axis -180 30 90   XYZ
    dof rx
    limits (-10.0 170.0)
  end
  begin
     id 27 
     name rwrist
     direction -1 -4.49048e-011 -9.98542e-027   
     length 1.66182   
     axis 6.32482e-015 -90 -90   XYZ
    dof ry
    limits (-180.0 0.0)
  end
  begin
     id 28
     name rhand
     direction -1 -4.48978e-011 -1.99771e-026   
     length 0.732235   
     axis 1.27479e-014 -90 -90   XYZ
    dof rx rz
    limits (-90.0 90.0)
           (-45.0 45.0)
  end
  begin
     id 29
     name rfingers
     direction -1 -4.49144e-011 -3.99245e-026   
     length 0.590347   
     axis 2.5496e-014 -90 -90   XYZ
    dof rx
    limits (0.0 90.0)
  end
  begin
     id 30
     name rthumb
     direction -0.707107 -6.35121e-011 0.707107   
     length 0.847624   
     axis -90 -45 -2.82974e-014   XYZ
    dof rx rz
    limits (-45.0 45.0)
           (-45.0 45.0)
  end
:hierarchy
  begin
    root lhipjoint rhipjoint lowerback
    lhipjoint lfemur
    lfemur ltibia
    ltibia lfoot
    lfoot ltoes
    rhipjoint rfemur
    rfemur rtibia
    rtibia rfoot
    rfoot rtoes
    lowerback upperback
    upperback thorax
    thorax lowerneck lclavicle rclavicle
    lowerneck upperneck
    upperneck head
    lclavicle lhumerus
    lhumerus lradius
    lradius lwrist
    lwrist lhand lthumb
    lhand lfingers
    rclavicle rhumerus
    rhumerus rradius
    rradius rwrist
    rwrist rhand rthumb
    rhand rfingers
  end

#!OML:ASF G:\Work\Work\Patient Classification 1\Elijah\terrain1\Elijah.ASF
:FULLY-SPECIFIED
:DEGREES
17
root 15.9051 21.1581 -15.9847 9.63829 4.82208 3.22603
lowerback 0 0 0
upperback 0 0 0
thorax 0 0 0
lowerneck 0 0 0
upperneck 0 0 0
head 0 0 0
rclavicle 0 0
rhumerus 0 0 0
rradius 0
rwrist 0
rhand 0 0
rfingers 0
rthumb 0 0
lclavicle 0 0
lhumerus 0 0 0
lradius 0
lwrist 0
lhand 0 0
lfingers 0
lthumb 0 0
rfemur -53.8674 -1.90096 20.8752
rtibia 65.2858
rfoot -20.3083 -8.818
rtoes -11.1136
lfemur -12.3976 -3.82558 -22.061
ltibia 52.407
lfoot 28.8087 -8.24639
ltoes 0
18
root 15.9051 21.1581 -15.9847 9.63829 4.82208 3.22603
lowerback 0 0 0
upperback 0 0 0
thorax 0 0 0
lowerneck 0 0 0
upperneck 0 0 0
head 0 0 0
rclavicle 0 0
rhumerus 0 0 0
rradius 0
rwrist 0
rhand 0 0
rfingers 0
rthumb 0 0
lclavicle 0 0
lhumerus 0 0 0
lradius 0
lwrist 0
lhand 0 0
lfingers 0
lthumb 0 0
rfemur -53.8674 -1.90096 20.8752
rtibia 65.2858
rfoot -20.3083 -8.818
rtoes -11.1136
lfemur -12.3976 -3.82558 -22.061
ltibia 52.407
lfoot 28.8087 -8.24639
ltoes 0
19
root 15.9051 21.1581 -15.9847 9.63829 4.82208 3.22603
lowerback 0 0 0
upperback 0 0 0
thorax 0 0 0
lowerneck 0 0 0
upperneck 0 0 0
head 0 0 0
rclavicle 0 0
rhumerus 0 0 0
rradius 0
rwrist 0
rhand 0 0
rfingers 0
rthumb 0 0
lclavicle 0 0
lhumerus 0 0 0
lradius 0
lwrist 0
lhand 0 0
lfingers 0
lthumb 0 0
rfemur -53.8674 -1.90096 20.8752
rtibia 65.2858
rfoot -20.3083 -8.818
rtoes -11.1136
lfemur -12.3976 -3.82558 -22.061
ltibia 52.407
lfoot 28.8087 -8.24639
ltoes 0
20
root 15.9051 21.1581 -15.9847 9.63829 4.82208 3.22603
lowerback 0 0 0
upperback 0 0 0
thorax 0 0 0
lowerneck 0 0 0
upperneck 0 0 0
head 0 0 0
rclavicle 0 0
rhumerus 0 0 0
rradius 0
rwrist 0
rhand 0 0
rfingers 0
rthumb 0 0
lclavicle 0 0
lhumerus 0 0 0
lradius 0
lwrist 0
lhand 0 0
lfingers 0
lthumb 0 0
rfemur -53.8674 -1.90096 20.8752
rtibia 65.2858
rfoot -20.3083 -8.818
rtoes -11.1136
lfemur -12.3976 -3.82558 -22.061
ltibia 52.407
lfoot 28.8087 -8.24639
ltoes 0
21
root 15.9051 21.1581 -15.9847 9.63829 4.82208 3.22603
lowerback 0 0 0
upperback 0 0 0
thorax 0 0 0
lowerneck 0 0 0
upperneck 0 0 0
head 0 0 0
rclavicle 0 0
rhumerus 0 0 0
rradius 0
rwrist 0
rhand 0 0
rfingers 0
rthumb 0 0
lclavicle 0 0
lhumerus 0 0 0
lradius 0
lwrist 0
lhand 0 0
lfingers 0
lthumb 0 0
rfemur -53.8674 -1.90096 20.8752
rtibia 65.2858
rfoot -20.3083 -8.818
rtoes -11.1136
lfemur -12.3976 -3.82558 -22.061
ltibia 52.407
lfoot 28.8087 -8.24639
ltoes 0
22
root 15.9051 21.1581 -15.9847 9.63829 4.82208 3.22603
lowerback 0 0 0
upperback 0 0 0
thorax 0 0 0
lowerneck 0 0 0
upperneck 0 0 0
head 0 0 0
rclavicle 0 0
rhumerus 0 0 0
rradius 0
rwrist 0
rhand 0 0
rfingers 0
rthumb 0 0
lclavicle 0 0
lhumerus 0 0 0
lradius 0
lwrist 0
lhand 0 0
lfingers 0
lthumb 0 0
rfemur -53.8674 -1.90096 20.8752
rtibia 65.2858
rfoot -20.3083 -8.818
rtoes -11.1136
lfemur -12.3976 -3.82558 -22.061
ltibia 52.407
lfoot 28.8087 -8.24639
ltoes 0
23
root 15.9051 21.1581 -15.9847 9.63829 4.82208 3.22603
lowerback 0 0 0
upperback 0 0 0
thorax 0 0 0
lowerneck 0 0 0
upperneck 0 0 0
head 0 0 0
rclavicle 0 0
rhumerus 0 0 0
rradius 0
rwrist 0
rhand 0 0
rfingers 0
rthumb 0 0
lclavicle 0 0
lhumerus 0 0 0
lradius 0
lwrist 0
lhand 0 0
lfingers 0
lthumb 0 0
rfemur -53.8674 -1.90096 20.8752
rtibia 65.2858
rfoot -20.3083 -8.818
rtoes -11.1136
lfemur -12.3976 -3.82558 -22.061
ltibia 52.407
lfoot 28.8087 -8.24639
ltoes 0
24
root 15.9051 21.1581 -15.9847 9.63829 4.82208 3.22603
lowerback 0 0 0
upperback 0 0 0
thorax 0 0 0
lowerneck 0 0 0
upperneck 0 0 0
head 0 0 0
rclavicle 0 0
rhumerus 0 0 0
rradius 0
rwrist 0
rhand 0 0
rfingers 0
rthumb 0 0
lclavicle 0 0
lhumerus 0 0 0
lradius 0
lwrist 0
lhand 0 0
lfingers 0
lthumb 0 0
rfemur -53.8674 -1.90096 20.8752
rtibia 65.2858
rfoot -20.3083 -8.818
rtoes -11.1136
lfemur -12.3976 -3.82558 -22.061
ltibia 52.407
lfoot 28.8087 -8.24639
ltoes 0
25
root 15.7675 22.0218 -14.155 8.40966 3.11623 0.341551
lowerback 0 0 0
upperback 0 0 0
thorax 0 0 0
lowerneck 0 0 0
upperneck 0 0 0
head 0 0 0
rclavicle 0 0
rhumerus 0 0 0
rradius 0
rwrist 0
rhand 0 0
rfingers 0
rthumb 0 0
lclavicle 0 0
lhumerus 0 0 0
lradius 0
lwrist 0
lhand 0 0
lfingers 0
lthumb 0 0
rfemur -38.7606 -0.420708 24.8207
rtibia 54.2553
rfoot -21.5287 -9.7105
rtoes -14.3752
lfemur -32.6815 3.87532 -20.5319
ltibia 85.918
lfoot 13.3597 -15.155
ltoes -9.6677
26
root 15.7601 22.0907 -14.0474 8.27821 3.60077 -0.0150542
lowerback 0 0 0
upperback 0 0 0
thorax 0 0 0
lowerneck 0 0 0
upperneck 0 0 0
head 0 0 0
rclavicle 0 0
rhumerus 0 0 0
rradius 0
rwrist 0
rhand 0 0
rfingers 0
rthumb 0 0
lclavicle 0 0
lhumerus 0 0 0
lradius 0
lwrist 0
lhand 0 0
lfingers 0
lthumb 0 0
rfemur -37.4122 -0.737102 25.2776
rtibia 52.9547
rfoot -21.3383 -9.8791
rtoes -14.4854
lfemur -34.1286 3.59322 -20.312
ltibia 87.2819
lfoot 11.3177 -14.5025
ltoes -12.8372
27
root 15.7666 22.1695 -13.9044 8.12865 3.23126 -0.467092
lowerback 0 0 0
upperback 0 0 0
thorax 0 0 0
lowerneck 0 0 0
upperneck 0 0 0
head 0 0 0
rclavicle 0 0
rhumerus 0 0 0
rradius 0
rwrist 0
rhand 0 0
rfingers 0
rthumb 0 0
lclavicle 0 0
lhumerus 0 0 0
lradius 0
lwrist 0
lhand 0 0
lfingers 0
lthumb 0 0
rfemur -35.905 -0.503734 25.706
rtibia 51.7739
rfoot -21.5879 -9.35168
rtoes -13.7209
lfemur -35.3602 4.06893 -20.154
ltibia 88.3083
lfoot 9.49215 -13.8645
ltoes -20.9323
28
root 15.7479 22.2344 -13.8091 8.27081 3.68789 -0.465998
lowerback 0 0 0
upperback 0 0 0
thorax 0 0 0
lowerneck 0 0 0
upperneck 0 0 0
head 0 0 0
rclavicle 0 0
rhumerus 0 0 0
rradius 0
rwrist 0
rhand 0 0
rfingers 0
rthumb 0 0
lclavicle 0 0
lhumerus 0 0 0
lradius 0
lwrist 0
lhand 0 0
lfingers 0
lthumb 0 0
rfemur -35.0503 -0.672212 25.8004
rtibia 50.7021
rfoot -21.5763 -9.30545
rtoes -12.7218
lfemur -37.3729 3.74843 -20.3095
ltibia 89.4111
lfoot 8.40275 -13.3433
ltoes -20.5761
29
root 15.7488 22.3021 -13.6775 7.97936 3.16077 -0.539716
lowerback 0 0 0
upperback 0 0 0
thorax 0 0 0
lowerneck 0 0 0
upperneck 0 0 0
head 0 0 0
rclavicle 0 0
rhumerus 0 0 0
rradius 0
rwrist 0
rhand 0 0
rfingers 0
rthumb 0 0
lclavicle 0 0
lhumerus 0 0 0
lradius 0
lwrist 0
lhand 0 0
lfingers 0
lthumb 0 0
rfemur -33.6766 -0.185941 25.8095
rtibia 49.6159
rfoot -21.3353 -9.32259
rtoes -11.9936
lfemur -37.7768 4.28679 -20.4737
ltibia 90.049
lfoot 6.79523 -12.7044
ltoes -19.7303
30
root 15.7514 22.3761 -13.5559 7.87501 3.90455 -0.613567
lowerback 0 0 0
upperback 0 0 0
thorax 0 0 0
lowerneck 0 0 0
upperneck 0 0 0
head 0 0 0
rclavicle 0 0
rhumerus 0 0 0
rradius 0
rwrist 0
rhand 0 0
rfingers 0
rthumb 0 0
lclavicle 0 0
lhumerus 0 0 0
lradius 0
lwrist 0
lhand 0 0
lfingers 0
lthumb 0 0
rfemur -32.4694 -0.734548 25.9535
rtibia 48.5708
rfoot -21.0854 -9.37976
rtoes -11.2162
lfemur -39.1761 3.56433 -20.5963
ltibia 90.5641
lfoot 5.50392 -12.2112
ltoes -13.0293
31
root 15.7413 22.4447 -13.4332 7.83207 3.51052 -0.859519
lowerback 0 0 0
upperback 0 0 0
thorax 0 0 0
lowerneck 0 0 0
upperneck 0 0 0
head 0 0 0
rclavicle 0 0
rhumerus 0 0 0
rradius 0
rwrist 0
rhand 0 0
rfingers 0
rthumb 0 0
lclavicle 0 0
lhumerus 0 0 0
lradius 0
lwrist 0
lhand 0 0
lfingers 0
lthumb 0 0
rfemur -31.3731 -0.42102 26.2131
rtibia 47.499
rfoot -20.5477 -9.18618
rtoes -10.6071
lfemur -40.3732 4.00743 -20.552
ltibia 90.8769
lfoot 4.49362 -12.1029
ltoes -12.9812
32
root 15.7365 22.5195 -13.3131 7.77197 3.51115 -0.971164
lowerback 0 0 0
upperback 0 0 0
thorax 0 0 0
lowerneck 0 0 0
upperneck 0 0 0
head 0 0 0
rclavicle 0 0
rhumerus 0 0 0
rradius 0
rwrist 0
rhand 0 0
rfingers 0
rthumb 0 0
lclavicle 0 0
lhumerus 0 0 0
lradius 0
lwrist 0
lhand 0 0
lfingers 0
lthumb 0 0
rfemur -30.2575 -0.506662 26.3697
rtibia 46.4123
rfoot -19.9759 -9.07868
rtoes -10.5049
lfemur -41.5918 3.98979 -20.5926
ltibia 90.9979
lfoot 3.87497 -11.9878
ltoes -12.2911
33
root 15.7353 22.5778 -13.2003 7.59382 3.5985 -1.26298
lowerback 0 0 0
upperback 0 0 0
thorax 0 0 0
lowerneck 0 0 0
upperneck 0 0 0
head 0 0 0
rclavicle 0 0
rhumerus 0 0 0
rradius 0
rwrist 0
rhand 0 0
rfingers 0
rthumb 0 0
lclavicle 0 0
lhumerus 0 0 0
lradius 0
lwrist 0
lhand 0 0
lfingers 0
lthumb 0 0
rfemur -29.1307 -0.613857 26.7271
rtibia 45.4289
rfoot -19.241 -9.00092
rtoes -10.8227
lfemur -42.3723 3.90726 -20.3952
ltibia 91.0794
lfoot 3.36618 -11.9762
ltoes -9.5781
